<?xml version="1.0" encoding="utf-8"?>
<!-- Generator: Adobe Illustrator 21.1.0, SVG Export Plug-In . SVG Version: 6.00 Build 0)  -->
<svg version="1.1" id="_x31_" xmlns="http://www.w3.org/2000/svg" xmlns:xlink="http://www.w3.org/1999/xlink" x="0px" y="0px"
	 viewBox="0 0 128 128" style="enable-background:new 0 0 128 128;" xml:space="preserve">
<style type="text/css">
	.st0{fill:#FFFFFF;}
	.st1{fill:#FFD500;}
	.st2{fill:#009FE8;}
</style>
<g>
	<g>
		<g>
			<rect x="0" class="st0" width="127.998" height="128"/>
		</g>
		<g>
			<polygon class="st1" points="4.267,0 0,4.267 0,0 			"/>
			<polygon class="st1" points="2.485,14.582 6.754,18.851 0.002,25.6 0.002,17.065 			"/>
			<polygon class="st1" points="25.6,0.002 18.05,7.555 13.78,3.286 17.065,0.002 			"/>
			<polygon class="st1" points="46.933,0 0,46.933 0,38.4 38.4,0 			"/>
			<polygon class="st1" points="3.263,56.473 7.529,60.739 0.002,68.266 0.002,59.734 			"/>
			<polygon class="st1" points="68.265,0.002 25.353,42.914 21.087,38.648 59.733,0.002 			"/>
			<polygon class="st2" points="110.933,0.002 91.55,19.385 87.284,15.119 102.398,0.002 			"/>
			<polygon class="st1" points="39.289,84.445 43.555,88.711 4.267,127.998 0.002,127.998 0.002,123.733 			"/>
			<polygon class="st1" points="128,0.002 128,4.267 61.379,70.886 57.113,66.62 123.731,0.002 			"/>
			<polygon class="st1" points="128,38.401 128,46.933 116.741,58.189 112.475,53.923 			"/>
			<polygon class="st1" points="127.998,59.733 127.998,68.267 68.266,128 59.733,128 			"/>
			<polygon class="st1" points="127.998,123.733 127.998,128 123.732,128 			"/>
			<polygon class="st2" points="127.998,102.4 127.998,110.933 110.932,128 102.399,128 			"/>
			<polygon class="st1" points="87.788,121.279 92.054,125.545 89.597,127.998 81.066,127.998 			"/>
			<polygon class="st1" points="128,81.067 128,89.599 109.878,107.72 105.613,103.455 			"/>
		</g>
	</g>
	<g>
		
			<rect x="14.168" y="55.845" transform="matrix(0.7071 -0.7071 0.7071 0.7071 -27.6207 51.0433)" class="st1" width="67.275" height="6.037"/>
		<polygon class="st2" points="4.061,98.34 0.002,102.4 0.002,110.935 8.329,102.607 		"/>
	</g>
	<g>
		
			<rect x="57.774" y="87.022" transform="matrix(0.7071 -0.7071 0.7071 0.7071 -40.0524 83.3834)" class="st2" width="45.703" height="6.033"/>
		<polygon class="st1" points="44.509,121.89 38.401,127.998 46.932,127.998 48.775,126.156 		"/>
	</g>
	<g>
		
			<rect x="39.686" y="27.341" transform="matrix(0.7071 -0.7071 0.7071 0.7071 -5.365 47.7648)" class="st2" width="30.577" height="6.034"/>
		<polygon class="st1" points="81.159,8.44 89.599,0 81.066,0 76.893,4.173 		"/>
		<polygon class="st1" points="28.789,52.277 0,81.066 0,89.6 33.056,56.544 		"/>
	</g>
	<g>
		<polygon class="st1" points="73.613,71.452 17.066,128 25.6,128 77.88,75.719 		"/>
		<polygon class="st1" points="88.196,56.87 92.463,61.136 127.998,25.6 127.998,17.067 		"/>
	</g>
</g>
</svg>
